<svg width="137" height="37" viewBox="0 0 137 37" fill="none" xmlns="http://www.w3.org/2000/svg">
<path opacity="0.1" fill-rule="evenodd" clip-rule="evenodd" d="M18.5 36C28.165 36 36 28.165 36 18.5C36 8.83502 28.165 1 18.5 1C8.83502 1 1 8.83502 1 18.5C1 28.165 8.83502 36 18.5 36Z" stroke="white" stroke-width="1.5"/>
<path d="M22.3335 14.6667C23.6596 14.6667 24.9313 15.1935 25.869 16.1312C26.8067 17.0688 27.3335 18.3406 27.3335 19.6667V25.5H24.0002V19.6667C24.0002 19.2247 23.8246 18.8007 23.512 18.4882C23.1994 18.1756 22.7755 18 22.3335 18C21.8915 18 21.4675 18.1756 21.155 18.4882C20.8424 18.8007 20.6668 19.2247 20.6668 19.6667V25.5H17.3335V19.6667C17.3335 18.3406 17.8603 17.0688 18.798 16.1312C19.7356 15.1935 21.0074 14.6667 22.3335 14.6667V14.6667Z" fill="white"/>
<path d="M13.9998 15.5H10.6665V25.5H13.9998V15.5Z" fill="white"/>
<path d="M12.3332 13C13.2536 13 13.9998 12.2538 13.9998 11.3334C13.9998 10.4129 13.2536 9.66669 12.3332 9.66669C11.4127 9.66669 10.6665 10.4129 10.6665 11.3334C10.6665 12.2538 11.4127 13 12.3332 13Z" fill="white"/>
<path opacity="0.1" fill-rule="evenodd" clip-rule="evenodd" d="M68.5 36C78.165 36 86 28.165 86 18.5C86 8.83502 78.165 1 68.5 1C58.835 1 51 8.83502 51 18.5C51 28.165 58.835 36 68.5 36Z" stroke="white" stroke-width="1.5"/>
<path d="M74.0002 9.66669H71.5002C70.3951 9.66669 69.3353 10.1057 68.5539 10.8871C67.7725 11.6685 67.3335 12.7283 67.3335 13.8334V16.3334H64.8335V19.6667H67.3335V26.3334H70.6668V19.6667H73.1668L74.0002 16.3334H70.6668V13.8334C70.6668 13.6123 70.7546 13.4004 70.9109 13.2441C71.0672 13.0878 71.2791 13 71.5002 13H74.0002V9.66669Z" fill="white"/>
<path opacity="0.1" fill-rule="evenodd" clip-rule="evenodd" d="M118.5 36C128.165 36 136 28.165 136 18.5C136 8.83502 128.165 1 118.5 1C108.835 1 101 8.83502 101 18.5C101 28.165 108.835 36 118.5 36Z" stroke="white" stroke-width="1.5"/>
<path d="M114 11.5V21.5" stroke="white" stroke-width="2" stroke-linecap="round" stroke-linejoin="round"/>
<path d="M124 16.5C125.381 16.5 126.5 15.3807 126.5 14C126.5 12.6193 125.381 11.5 124 11.5C122.619 11.5 121.5 12.6193 121.5 14C121.5 15.3807 122.619 16.5 124 16.5Z" stroke="white" stroke-width="2" stroke-linecap="round" stroke-linejoin="round"/>
<path d="M114 26.5C115.381 26.5 116.5 25.3807 116.5 24C116.5 22.6193 115.381 21.5 114 21.5C112.619 21.5 111.5 22.6193 111.5 24C111.5 25.3807 112.619 26.5 114 26.5Z" stroke="white" stroke-width="2" stroke-linecap="round" stroke-linejoin="round"/>
<path d="M124 16.5C124 18.4891 123.21 20.3968 121.803 21.8033C120.397 23.2098 118.489 24 116.5 24" stroke="white" stroke-width="2" stroke-linecap="round" stroke-linejoin="round"/>
</svg>
